<?xml version="1.0" encoding="UTF-8"?>
<svg id="Layer_1" xmlns="http://www.w3.org/2000/svg" version="1.1" viewBox="0 0 512 512">
  <!-- Generator: Adobe Illustrator 30.3.0, SVG Export Plug-In . SVG Version: 2.1.3 Build 182)  -->
  <defs>
    <style>
      .st0 {
        fill: #6d8daf;
        fill-rule: evenodd;
      }
    </style>
  </defs>
  <path class="st0" d="M212,84h88v124l108,216v24H104v-24l108-216v-124ZM232,392c0,11.05,8.95,20,20,20s20-8.95,20-20-8.95-20-20-20-20,8.95-20,20ZM187,356c0,7.18,5.82,13,13,13s13-5.82,13-13-5.82-13-13-13-13,5.82-13,13ZM297,372c0,8.28,6.72,15,15,15s15-6.72,15-15-6.72-15-15-15-15,6.72-15,15Z"/>
</svg>