<?xml version="1.0" encoding="UTF-8"?>
<svg id="Layer_1" xmlns="http://www.w3.org/2000/svg" xmlns:xlink="http://www.w3.org/1999/xlink" version="1.1" viewBox="0 0 320 320">
  <!-- Generator: Adobe Illustrator 30.3.0, SVG Export Plug-In . SVG Version: 2.1.3 Build 182)  -->
  <defs>
    <style>
      .st0, .st1 {
        stroke-linejoin: round;
      }

      .st0, .st1, .st2 {
        fill: none;
        stroke-linecap: round;
      }

      .st0, .st3 {
        stroke: #000;
        stroke-width: 3.19px;
      }

      .st4 {
        fill: url(#radial-gradient);
      }

      .st5 {
        fill: #4d4d4d;
      }

      .st1 {
        stroke: #fff;
        stroke-width: 2.07px;
      }

      .st3, .st6 {
        fill: #f7931e;
      }

      .st3, .st2 {
        stroke-miterlimit: 10;
      }

      .st7 {
        fill: #fff;
      }

      .st8 {
        fill: #1a1a1a;
      }

      .st2 {
        stroke: #b3b3b3;
        stroke-width: 2.94px;
      }

      .st9 {
        fill: #999;
      }
    </style>
    <radialGradient id="radial-gradient" cx="232.58" cy="4738.74" fx="232.58" fy="4738.74" r="68.05" gradientTransform="translate(-189.23 -604.76) scale(1.5 .18)" gradientUnits="userSpaceOnUse">
      <stop offset="0" stop-color="gray"/>
      <stop offset="1" stop-color="gray" stop-opacity="0"/>
    </radialGradient>
  </defs>
  <g>
    <g>
      <path d="M130.96,211.9c0-1.34-.1-2.71.02-4.05.17-1.83.69-3.56,1.99-4.97.55-.61,1.29-.8,1.91-.9,1.52-.23,3.05-.03,4.52.48,2.94.99,5.83,2.04,8.65,3.34,1.47.69,2.95,1.4,4.35,2.25.73.43.82.36,1.09-.46.54-1.67,2.59-3.17,4.33-3.2.59,0,1.17.04,1.76,0,1.21-.1,2.16.46,3.01,1.21.72.62,1.49,1.24,1.65,2.31.04.16.22.43.62.13.73-.57,1.55-1.04,2.41-1.37.92-.36,1.8-.77,2.68-1.21,2.5-1.28,5.19-2.22,7.9-3,1.67-.48,3.43-.94,5.29-.23.89.35,1.47.97,1.93,1.61.43.62.69,1.45.87,2.28.36,1.66.24,3.3.27,4.97.03,1.7.16,3.42-.04,5.09-.19,1.5-.33,3.03-1.31,4.38-.68.92-1.56,1.31-2.47,1.4-1.73.14-3.44-.06-5.19-.58-1.73-.5-3.4-1.15-5.03-1.84-.51-.22-1-.45-1.52-.61-1.22-.36-2.21-1.18-3.38-1.61-1.14-.42-2.09-1.17-3.17-1.66-.46-.2-.93-.41-1.29-.72-.56-.51-1.03-.48-1.46.07-.51.66-1.28.9-1.97,1.21-.35.16-.91.15-1.28-.02-.69-.32-1.33-.78-1.95-1.23-.24-.17-.34-.64-.57-.68-.27-.04-.62.16-.89.33-.47.32-.87.74-1.37.98-1.83.95-3.6,2.05-5.5,2.85-2.24.97-4.43,2.08-6.78,2.73-1.77.47-3.56.98-5.47.86-1.72-.08-2.8-.73-3.63-2.29-.67-1.21-.82-2.51-.98-3.79-.16-1.34-.03-2.69-.03-4.05Z"/>
      <g>
        <path class="st8" d="M161.04,121.86c-20.76-5.59-33.23-23.51-50.05-26.79-5.68-1.1-35.41,0-34.64,16.36.77,16.36,18.92,26.58,41.41,26.58,1.75,0,3.46-.2,5.19-.35,4.28-.4,8.48-1.23,12.59-2.46,3.92-1.16,7.77-2.6,11.55-4.33,5.37-2.47,10.6-5.41,15.72-8.57l.72-.45h-2.48Z"/>
        <path d="M214.59,120.81c-4.74,0-47.76,1.06-53.13,1.06s-48.41-1.06-53.14-1.06c2.84-13.64,7.27-76.45-3.17-104.4,13.36-3.65,46.19-3.92,55.99-3.92s42.97.27,56.3,3.92c-10.43,27.95-5.69,90.77-2.85,104.4Z"/>
        <path class="st9" d="M108.31,120.81c4.74,0,47.76,1.06,53.14,1.06s48.41-1.06,53.14-1.06c-.71-3.42-1.54-9.94-2.22-18.23h-101.88c-.66,8.28-1.47,14.81-2.18,18.23Z"/>
        <path class="st5" d="M225.11,90.99c-20.05,0-40.14,17.65-62.31,31.32-5.12,3.16-10.35,6.1-15.72,8.57-3.77,1.73-7.62,3.16-11.55,4.33,8.54-2.11,18.29-5.16,27.95-8.32l10.06-2.45c13.58,2.36,27.36,3.43,40.07,3.43,14.31,0,27.26-9.54,27.26-21.13,0-6.13-1.72-15.76-15.76-15.76Z"/>
        <path d="M117.75,138.02s.39-.03,1.13-.08c.73-.07,1.8-.18,3.15-.4,2.7-.42,6.51-1.27,11.01-2.57,9-2.57,20.72-6.94,32.39-11.48,11.69-4.53,23.33-9.19,32.56-12.13,4.63-1.46,8.63-2.51,12.08-2.81,1.75-.13,3.45-.07,5.11.48.37.1.81.31,1.17.49.17.09.33.18.48.26.17.11.32.22.45.31.53.39.78.63.78.63,2.08,2.04,2.12,5.38.08,7.47-2.04,2.09-5.38,2.12-7.47.08,0,0,.09.11.32.27.06.04.13.08.2.12.04.03.09.06.14.08.1.05.27.09.28.1.28.04-.18-.17-1.17-.19-1-.03-2.46.06-4.2.29-1.74.22-3.77.59-6.01,1.04-8.96,1.83-21.06,5.24-33.17,8.52-12.12,3.3-24.34,6.44-33.66,8.07-4.66.83-8.58,1.29-11.33,1.42-1.37.08-2.46.07-3.2.07-.74-.03-1.13-.04-1.13-.04Z"/>
        <path class="st6" d="M217.76,127.58c-1.31-4.93-3.27-9.6-5.77-13.93-7.35-.77-27.73,6.45-48.5,13.23h0c-1.12.37-2.25.73-3.36,1.1-.24.07-.48.15-.72.23-.93.3-1.86.59-2.78.88-.44.14-.88.28-1.32.42-.77.24-1.53.48-2.29.72-.55.17-1.09.33-1.63.49-.68.21-1.36.42-2.03.63-.58.17-1.15.34-1.73.51-.64.19-1.27.38-1.9.57-.6.17-1.17.33-1.75.5-.61.18-1.22.36-1.82.52-.44.13-.88.24-1.32.36-1.37.38-2.71.73-4.03,1.06-.43.11-.86.23-1.28.33-4.11,1.22-8.31,2.06-12.59,2.46h-.01c-1.88.23-3.61.35-5.18.35-5.14,0-10.04-.54-14.58-1.56-.22,2.06-.34,4.15-.34,6.27,0,32.29,26.17,58.46,58.46,58.46s58.47-26.17,58.47-58.46c0-5.24-.7-10.32-2-15.15Z"/>
        <g>
          <path class="st3" d="M206.16,142.44c0,8.5-6.89,15.38-15.38,15.38s-15.38-6.88-15.38-15.38,6.89-15.38,15.38-15.38c8.49,0,15.38,6.89,15.38,15.38Z"/>
          <line class="st0" x1="206.16" y1="142.44" x2="206.16" y2="205.62"/>
          <path class="st1" d="M180.78,142.44c0-5.52,4.47-10,9.99-10"/>
        </g>
        <path class="st2" d="M116.52,94.97c1.53-22.97,1.57-57.19-5.23-75.38"/>
      </g>
      <path d="M228.79,124.1s1.21,1.38,3.47,3.95c2.22,2.61,5.45,6.48,9.23,11.65,3.78,5.17,8.1,11.68,12.24,19.6,2.05,3.97,4.05,8.3,5.81,13,1.74,4.71,3.31,9.78,4.24,15.24.5,2.72.79,5.54.94,8.41.09,2.88.02,5.83-.36,8.81-.81,5.92-2.79,12.05-6.62,17.25-.44.68-.97,1.28-1.49,1.91-.27.32-.49.6-.8.96l-.84.85c-.57.56-1.09,1.15-1.71,1.69-.63.54-1.27,1.07-1.91,1.61-.62.57-1.34.97-2.01,1.46-.69.47-1.36.97-2.09,1.36-.72.41-1.45.82-2.18,1.24-.76.35-1.52.71-2.28,1.06-.75.38-1.54.67-2.34.96-.8.28-1.58.61-2.39.86-1.63.46-3.26.99-4.94,1.3-3.34.79-6.78,1.14-10.24,1.41-13.9.73-28.19-1.96-41.93-6.49-13.78-4.55-27.15-10.91-39.75-18.5-6.3-3.8-12.4-7.93-18.28-12.29-2.96-2.17-5.81-4.43-8.67-6.73-1.4-1.16-2.79-2.31-4.18-3.47-1.37-1.2-2.74-2.4-4.11-3.59-10.8-9.66-20.57-20.14-28.86-31.2-8.26-11.07-15.07-22.74-19.63-34.65-2.27-5.95-3.95-11.98-4.83-17.96-.89-5.97-.97-11.91-.05-17.52.9-5.61,3.01-10.81,5.93-15.14.68-1.12,1.53-2.1,2.33-3.09l.6-.74s.14-.15.12-.13l.08-.08.16-.16.32-.32c.42-.43.84-.85,1.26-1.27.9-.82,1.87-1.66,2.81-2.41.48-.35.97-.7,1.44-1.05l.71-.51.74-.46c3.92-2.49,8-4.02,11.8-5.08,3.83-1.02,7.42-1.54,10.66-1.74,6.49-.44,11.56.08,14.97.57,1.71.19,3,.49,3.88.64.87.16,1.33.24,1.33.24,0,0-.46-.02-1.35-.06-.89-.02-2.2-.13-3.91-.13-3.41-.06-8.45-.11-14.7.77-3.13.4-6.55,1.09-10.14,2.23-3.59,1.1-7.32,2.74-10.93,5.06l-.68.43-.65.48c-.44.32-.87.65-1.32.97-.85.69-1.64,1.39-2.49,2.17-.41.43-.83.85-1.24,1.29l-.58.6-.55.67c-.73.9-1.52,1.79-2.13,2.81-2.67,3.95-4.63,8.71-5.49,13.94-1.76,10.49.24,22.38,4.64,33.93,4.4,11.61,11.04,23.08,19.15,34.01,8.13,10.92,17.76,21.29,28.4,30.87,10.69,9.58,22.36,18.29,34.78,25.91,12.39,7.61,25.56,14,39.11,18.59,13.52,4.58,27.56,7.32,41.13,6.72,3.37-.23,6.72-.55,9.96-1.29,1.64-.29,3.21-.79,4.79-1.22.78-.23,1.54-.54,2.31-.81.77-.27,1.53-.55,2.26-.91.74-.33,1.47-.67,2.2-1,.7-.39,1.4-.79,2.1-1.17.71-.36,1.36-.83,2.01-1.28.64-.46,1.35-.85,1.92-1.37.6-.5,1.2-.99,1.8-1.48.59-.51,1.13-1.11,1.7-1.67l.84-.84.72-.86c.49-.6,1.01-1.17,1.43-1.81,3.7-4.93,5.7-10.78,6.57-16.52.42-2.89.51-5.77.47-8.59-.12-2.82-.36-5.59-.82-8.28-.84-5.39-2.32-10.43-3.99-15.11-1.68-4.69-3.61-9.01-5.59-12.99-4.01-7.94-8.24-14.48-11.91-19.71-3.68-5.23-6.84-9.15-9.01-11.8-2.22-2.61-3.4-4.01-3.4-4.01Z"/>
      <g>
        <path class="st6" d="M81.09,63.95c0,7.74-6.28,14.02-14.02,14.02s-14.02-6.28-14.02-14.02,6.28-14.02,14.02-14.02,14.02,6.28,14.02,14.02Z"/>
        <path class="st7" d="M68.59,58.75c0,2.97-2.41,5.38-5.38,5.38s-5.39-2.4-5.39-5.38,2.41-5.39,5.39-5.39c2.97,0,5.38,2.4,5.38,5.39Z"/>
      </g>
      <g>
        <path class="st6" d="M268.96,224.31c0,7.74-6.29,14.01-14.03,14.01s-14.02-6.27-14.02-14.01,6.27-14.02,14.02-14.02,14.03,6.27,14.03,14.02Z"/>
        <path class="st7" d="M256.45,219.11c0,2.97-2.41,5.39-5.39,5.39s-5.39-2.41-5.39-5.39,2.41-5.39,5.39-5.39c2.97,0,5.39,2.41,5.39,5.39Z"/>
      </g>
      <path d="M158.6,171.36c-1.27,1.27-1.91,3.27-3.16,4.62-1.37,1.5-3.25,2.77-4.91,3.92-2.79,1.93-7.59,3.39-10.98,3.17-3.87.23-8.11-1.53-11.03-4-2.29-1.96-6.83-6.2-6.83-9.4,1.31.54,2.52,1.73,3.77,2.45,1.87,1.11,3.63,1.33,5.73,1.69,4.02.68,7.73-2.87,10.18-5.56,2.27-2.5,4.39-5.47,7.46-7.04,1.73-.87,3.67-1.35,5.55-.66,1.11.42,3.23,2.55,4.23,2.51.92.03,2.37-1.73,3.27-2.12,1.96-.84,3.7-.9,5.68-.1,3.51,1.44,5.83,4.7,8.28,7.42,2.37,2.6,5.54,5.63,9.33,5.63,1.8,0,4.12-.35,5.68-1.23,1.53-.86,3.06-2.3,4.67-2.97,0,3.2-4.54,7.44-6.83,9.4-2.93,2.46-7.15,4.22-11.03,4-3.39.22-8.2-1.25-10.98-3.17-1.66-1.14-3.56-2.42-4.91-3.92-1.26-1.34-1.9-3.34-3.17-4.61-.61.6.61.6,0,0Z"/>
    </g>
    <g>
      <path d="M31.32,260.68c0-1.3.46-2.4,1.38-3.32.92-.92,2.02-1.38,3.32-1.38s2.4.46,3.32,1.38c.92.92,1.38,2.03,1.38,3.32s-.46,2.4-1.38,3.32c-.92.92-2.03,1.38-3.32,1.38s-2.41-.46-3.32-1.38c-.92-.92-1.38-2.03-1.38-3.32ZM31.97,268.95h8.1v26.25h-8.1v-26.25Z"/>
      <path d="M60.76,276.67c-1.19-1.48-2.76-2.21-4.7-2.21-.68,0-1.35.16-2,.49-.65.33-.97.88-.97,1.68,0,.65.34,1.13,1,1.43.67.3,1.51.58,2.54.81,1.03.23,2.13.49,3.3.76,1.17.27,2.27.69,3.29,1.27,1.03.58,1.87,1.36,2.54,2.35.66.99,1,2.32,1,3.97s-.37,3.09-1.11,4.19c-.74,1.1-1.69,1.98-2.84,2.64-1.15.67-2.45,1.14-3.89,1.41-1.44.27-2.86.41-4.27.41-1.84,0-3.69-.26-5.56-.79-1.87-.52-3.46-1.45-4.75-2.78l4.92-5.46c.75.93,1.59,1.65,2.51,2.13.92.49,1.99.73,3.21.73.93,0,1.78-.14,2.54-.41.76-.27,1.13-.77,1.13-1.49s-.33-1.2-1-1.54c-.67-.34-1.51-.63-2.54-.86-1.03-.23-2.13-.48-3.3-.75-1.17-.27-2.27-.68-3.3-1.22-1.02-.54-1.87-1.3-2.54-2.3-.67-.99-1-2.31-1-3.97,0-1.55.32-2.88.95-4,.63-1.11,1.46-2.03,2.49-2.76,1.02-.72,2.21-1.25,3.54-1.59,1.33-.34,2.68-.51,4.05-.51,1.73,0,3.48.25,5.24.75,1.77.51,3.26,1.41,4.48,2.7l-4.96,4.91Z"/>
      <path d="M69.95,282.07c0-2.09.38-3.98,1.13-5.67.76-1.69,1.79-3.14,3.11-4.35,1.31-1.21,2.86-2.14,4.65-2.78,1.78-.65,3.68-.97,5.7-.97s3.92.32,5.7.97,3.33,1.58,4.65,2.78c1.31,1.21,2.35,2.65,3.11,4.35.76,1.69,1.13,3.58,1.13,5.67s-.38,3.98-1.13,5.67c-.75,1.69-1.79,3.14-3.11,4.35-1.32,1.21-2.86,2.13-4.65,2.78-1.78.65-3.68.97-5.7.97s-3.92-.33-5.7-.97c-1.78-.65-3.33-1.57-4.65-2.78-1.32-1.21-2.35-2.66-3.11-4.35-.76-1.69-1.13-3.58-1.13-5.67ZM78.05,282.07c0,1.98.57,3.58,1.7,4.81,1.13,1.22,2.73,1.84,4.78,1.84s3.65-.61,4.78-1.84c1.14-1.23,1.7-2.83,1.7-4.81s-.57-3.58-1.7-4.81c-1.13-1.23-2.72-1.84-4.78-1.84s-3.65.61-4.78,1.84c-1.14,1.22-1.7,2.83-1.7,4.81Z"/>
      <path d="M121.75,275.43h-7.13v8.75c0,.72.03,1.38.11,1.97.07.6.23,1.11.49,1.54.25.43.64.77,1.16,1,.52.23,1.21.35,2.08.35.43,0,1-.04,1.7-.14.7-.09,1.23-.3,1.59-.62v6.75c-.9.33-1.84.54-2.81.65-.97.11-1.93.16-2.86.16-1.37,0-2.63-.15-3.78-.43-1.15-.29-2.16-.75-3.02-1.38-.86-.63-1.54-1.45-2.03-2.46-.49-1.01-.73-2.23-.73-3.67v-12.48h-5.19v-6.48h5.19v-7.78h8.1v7.78h7.13v6.48h0Z"/>
      <path d="M124.89,282.07c0-2.09.38-3.98,1.13-5.67s1.79-3.14,3.11-4.35c1.31-1.21,2.86-2.14,4.65-2.78s3.68-.97,5.7-.97,3.92.32,5.7.97c1.78.65,3.33,1.58,4.65,2.78s2.35,2.65,3.11,4.35c.76,1.69,1.13,3.58,1.13,5.67s-.38,3.98-1.13,5.67c-.76,1.69-1.79,3.14-3.11,4.35s-2.86,2.13-4.65,2.78c-1.78.65-3.68.97-5.7.97s-3.92-.33-5.7-.97c-1.78-.65-3.33-1.57-4.65-2.78-1.32-1.21-2.35-2.66-3.11-4.35-.75-1.69-1.13-3.58-1.13-5.67ZM132.99,282.07c0,1.98.57,3.58,1.7,4.81,1.13,1.22,2.73,1.84,4.78,1.84s3.65-.61,4.78-1.84c1.13-1.23,1.7-2.83,1.7-4.81s-.57-3.58-1.7-4.81c-1.13-1.23-2.73-1.84-4.78-1.84s-3.65.61-4.78,1.84c-1.14,1.22-1.7,2.83-1.7,4.81Z"/>
      <path d="M159.56,268.95h7.45v3.46h.11c.33-.47.75-.95,1.27-1.43s1.14-.93,1.84-1.32c.7-.39,1.47-.72,2.29-.98.83-.25,1.71-.38,2.64-.38,1.95,0,3.71.34,5.3,1,1.58.67,2.95,1.61,4.08,2.81,1.13,1.21,2.01,2.64,2.62,4.29.61,1.66.92,3.48.92,5.46,0,1.84-.28,3.59-.84,5.27-.56,1.67-1.35,3.16-2.38,4.46-1.03,1.3-2.28,2.33-3.76,3.11-1.48.78-3.15,1.16-5.03,1.16-1.69,0-3.27-.26-4.73-.79-1.46-.52-2.65-1.41-3.59-2.67h-.11v15.13h-8.1v-38.57h0ZM167.02,282.07c0,1.98.57,3.58,1.7,4.81,1.13,1.22,2.73,1.84,4.78,1.84s3.65-.61,4.78-1.84c1.13-1.23,1.7-2.83,1.7-4.81s-.57-3.58-1.7-4.81c-1.14-1.23-2.73-1.84-4.78-1.84s-3.65.61-4.78,1.84c-1.14,1.22-1.7,2.83-1.7,4.81Z"/>
      <path d="M217.69,290.66c-1.3,1.66-2.94,2.94-4.91,3.83-1.98.9-4.03,1.35-6.16,1.35s-3.92-.33-5.7-.97c-1.78-.65-3.33-1.57-4.65-2.78-1.32-1.21-2.35-2.66-3.11-4.35-.76-1.69-1.13-3.58-1.13-5.67s.38-3.98,1.13-5.67,1.79-3.14,3.11-4.35c1.31-1.21,2.86-2.14,4.65-2.78s3.68-.97,5.7-.97c1.87,0,3.57.32,5.11.97,1.53.65,2.83,1.58,3.89,2.78,1.06,1.21,1.89,2.65,2.46,4.35.58,1.69.86,3.58.86,5.67v2.54h-18.8c.32,1.55,1.03,2.78,2.11,3.7,1.08.92,2.41,1.38,4,1.38,1.33,0,2.46-.3,3.38-.89.92-.59,1.72-1.36,2.4-2.29l5.67,4.16ZM210.83,279.1c.04-1.37-.41-2.54-1.35-3.51-.93-.97-2.14-1.46-3.62-1.46-.9,0-1.69.14-2.38.43-.69.29-1.27.66-1.76,1.11-.49.45-.86.97-1.13,1.57-.27.59-.42,1.22-.46,1.86h10.7Z"/>
      <path d="M224.66,291.42c0-1.15.42-2.14,1.27-2.97.85-.83,1.86-1.24,3.05-1.24s2.16.4,3.02,1.19c.86.79,1.3,1.77,1.3,2.92s-.42,2.14-1.27,2.97c-.85.83-1.86,1.24-3.05,1.24-.58,0-1.13-.11-1.65-.32-.52-.22-.98-.5-1.38-.86-.4-.36-.71-.79-.94-1.3-.24-.51-.35-1.05-.35-1.62Z"/>
      <path d="M262.21,291.53c-1.22,1.48-2.61,2.57-4.16,3.27-1.55.7-3.23,1.05-5.03,1.05-1.91,0-3.67-.33-5.3-.97-1.62-.65-3-1.56-4.16-2.73-1.15-1.17-2.05-2.56-2.7-4.16-.65-1.6-.97-3.36-.97-5.27s.32-3.66.97-5.27c.65-1.6,1.55-2.99,2.7-4.16,1.16-1.17,2.54-2.08,4.16-2.73,1.62-.65,3.39-.97,5.3-.97s3.54.38,5.11,1.13c1.57.76,2.96,1.82,4.19,3.19l-2.59,1.94c-.94-1.04-1.97-1.86-3.08-2.46-1.12-.59-2.32-.89-3.62-.89-1.51,0-2.88.27-4.11.81-1.22.54-2.27,1.27-3.13,2.19-.86.92-1.52,2-1.97,3.24-.45,1.24-.68,2.56-.68,3.97s.22,2.73.68,3.97c.45,1.24,1.11,2.33,1.97,3.24.86.92,1.91,1.65,3.13,2.19,1.22.54,2.59.81,4.11.81,1.37,0,2.62-.32,3.76-.95,1.13-.63,2.12-1.47,2.95-2.51l2.48,2.05Z"/>
      <path d="M267.28,254.36h3.24v20.26h.11c.65-1.37,1.73-2.55,3.24-3.54,1.51-.99,3.28-1.48,5.29-1.48s3.53.31,4.75.92c1.22.61,2.19,1.41,2.89,2.4.7.99,1.19,2.14,1.46,3.43.27,1.3.41,2.63.41,4v14.85h-3.24v-14.69c0-1.01-.09-1.99-.27-2.94-.18-.95-.5-1.81-.94-2.57-.45-.76-1.08-1.36-1.89-1.81-.81-.45-1.86-.68-3.16-.68-1.19,0-2.32.21-3.38.62-1.06.41-1.98,1.05-2.76,1.89-.78.85-1.39,1.91-1.84,3.19-.45,1.28-.68,2.78-.68,4.51v12.48h-3.24v-40.85h0Z"/>
    </g>
  </g>
  <path class="st4" d="M303.15,251c0,1.32-64.09,2.38-143.15,2.38s-143.15-1.07-143.15-2.38,64.09-2.38,143.15-2.38c79.06,0,143.15,1.07,143.15,2.38Z"/>
</svg>