<?xml version="1.0" encoding="utf-8"?>
<!DOCTYPE svg PUBLIC "-//W3C//DTD SVG 1.1//EN" "http://www.w3.org/Graphics/SVG/1.1/DTD/svg11.dtd">
<svg version="1.1" id="Layer_1" xmlns="http://www.w3.org/2000/svg" xmlns:xlink="http://www.w3.org/1999/xlink" x="0px" y="0px"
	 width="320px" height="320px" viewBox="0 0 320 320" enable-background="new 0 0 320 320" xml:space="preserve">
<g>
	<g>
		<g>
			<path d="M139.916,195.893c0-0.929-0.069-1.873,0.014-2.799c0.121-1.266,0.474-2.461,1.375-3.439
				c0.382-0.422,0.892-0.556,1.323-0.624c1.048-0.161,2.11-0.021,3.127,0.33c2.03,0.683,4.031,1.411,5.981,2.312
				c1.019,0.477,2.037,0.967,3.008,1.554c0.507,0.298,0.565,0.246,0.755-0.315c0.374-1.152,1.788-2.194,2.994-2.213
				c0.406-0.002,0.811,0.025,1.218-0.002c0.837-0.066,1.493,0.321,2.081,0.837c0.495,0.431,1.028,0.858,1.138,1.601
				c0.025,0.113,0.151,0.296,0.432,0.089c0.506-0.396,1.072-0.722,1.67-0.946c0.634-0.246,1.242-0.535,1.85-0.834
				c1.732-0.887,3.592-1.535,5.465-2.076c1.154-0.335,2.372-0.652,3.656-0.159c0.617,0.245,1.018,0.674,1.335,1.112
				c0.3,0.426,0.476,1.006,0.605,1.578c0.251,1.15,0.165,2.285,0.189,3.434c0.021,1.173,0.114,2.367-0.026,3.523
				c-0.132,1.035-0.227,2.098-0.908,3.027c-0.469,0.634-1.078,0.904-1.711,0.967c-1.198,0.097-2.377-0.044-3.588-0.399
				c-1.199-0.343-2.35-0.794-3.482-1.274c-0.35-0.15-0.689-0.311-1.049-0.421c-0.846-0.246-1.526-0.815-2.336-1.114
				c-0.785-0.289-1.445-0.811-2.193-1.149c-0.316-0.136-0.643-0.287-0.889-0.497c-0.387-0.355-0.711-0.333-1.007,0.049
				c-0.353,0.454-0.882,0.625-1.364,0.839c-0.241,0.11-0.632,0.106-0.882-0.011c-0.479-0.221-0.917-0.538-1.346-0.854
				c-0.168-0.115-0.236-0.445-0.393-0.473c-0.184-0.029-0.428,0.113-0.613,0.229c-0.326,0.218-0.605,0.51-0.946,0.675
				c-1.267,0.657-2.488,1.417-3.805,1.968c-1.548,0.672-3.065,1.438-4.689,1.886c-1.222,0.326-2.461,0.677-3.783,0.595
				c-1.187-0.053-1.939-0.506-2.508-1.582c-0.46-0.84-0.565-1.738-0.675-2.624C139.828,197.768,139.916,196.836,139.916,195.893z"/>
			<g>
				<path fill="#1A1A1A" d="M160.717,133.625c-14.359-3.867-22.981-16.259-34.612-18.527c-3.93-0.761-24.488,0-23.959,11.313
					c0.53,11.316,13.085,18.384,28.638,18.384c1.21,0,2.395-0.135,3.589-0.24c2.959-0.278,5.864-0.854,8.706-1.701
					c2.71-0.805,5.376-1.796,7.985-2.993c3.716-1.706,7.329-3.741,10.875-5.929l0.496-0.308H160.717z"/>
				<path d="M197.754,132.895c-3.277,0-33.032,0.731-36.747,0.731c-3.725,0-33.48-0.731-36.754-0.731
					c1.966-9.43,5.029-52.873-2.191-72.203c9.237-2.521,31.945-2.71,38.724-2.71c6.778,0,29.715,0.189,38.939,2.71
					C192.512,80.021,195.789,123.465,197.754,132.895z"/>
				<path fill="#999999" d="M124.252,132.895c3.276,0,33.031,0.731,36.75,0.731c3.723,0,33.477-0.731,36.754-0.731
					c-0.494-2.363-1.064-6.877-1.537-12.605h-70.46C125.306,126.018,124.742,130.532,124.252,132.895z"/>
				<path fill="#4D4D4D" d="M205.027,112.272c-13.863,0-27.758,12.207-43.092,21.661c-3.544,2.188-7.159,4.222-10.875,5.929
					c-2.608,1.197-5.273,2.188-7.985,2.993c5.908-1.457,12.647-3.57,19.333-5.752l6.956-1.693
					c9.393,1.629,18.921,2.375,27.709,2.375c9.895,0,18.856-6.597,18.856-14.611C215.933,118.933,214.742,112.272,205.027,112.272z"
					/>
				<g>
					<path d="M130.783,144.796c0,0,0.271-0.019,0.779-0.055c0.505-0.048,1.244-0.123,2.178-0.276
						c1.869-0.289,4.504-0.88,7.613-1.779c6.227-1.78,14.327-4.797,22.399-7.937c8.086-3.131,16.136-6.356,22.518-8.386
						c3.205-1.012,5.965-1.737,8.357-1.941c1.207-0.088,2.389-0.049,3.537,0.332c0.254,0.072,0.563,0.217,0.806,0.341
						c0.12,0.065,0.231,0.124,0.332,0.178c0.118,0.077,0.222,0.15,0.313,0.217c0.369,0.272,0.538,0.435,0.538,0.435
						c1.44,1.41,1.467,3.722,0.057,5.164c-1.41,1.442-3.722,1.467-5.164,0.057c0,0,0.063,0.079,0.224,0.189
						c0.042,0.027,0.088,0.055,0.141,0.081c0.029,0.019,0.061,0.039,0.098,0.056c0.068,0.037,0.186,0.065,0.192,0.07
						c0.193,0.03-0.124-0.115-0.812-0.134c-0.691-0.024-1.701,0.042-2.902,0.198c-1.202,0.153-2.609,0.405-4.153,0.72
						c-6.198,1.268-14.562,3.625-22.939,5.895c-8.382,2.28-16.836,4.451-23.282,5.579c-3.221,0.573-5.934,0.889-7.837,0.979
						c-0.95,0.055-1.701,0.051-2.21,0.046C131.054,144.805,130.783,144.796,130.783,144.796z"/>
				</g>
				<path fill="#F7931E" d="M199.945,137.581c-0.908-3.411-2.262-6.642-3.992-9.634c-5.085-0.53-19.177,4.46-33.543,9.148v0.007
					c-0.778,0.251-1.556,0.501-2.327,0.757c-0.167,0.048-0.334,0.103-0.496,0.158c-0.645,0.205-1.284,0.41-1.92,0.612
					c-0.305,0.099-0.608,0.192-0.913,0.291c-0.533,0.168-1.06,0.331-1.583,0.498c-0.379,0.115-0.752,0.228-1.125,0.342
					c-0.467,0.146-0.94,0.292-1.405,0.436c-0.401,0.117-0.798,0.236-1.193,0.353c-0.44,0.133-0.881,0.262-1.313,0.393
					c-0.413,0.116-0.81,0.229-1.208,0.343c-0.424,0.123-0.845,0.246-1.262,0.36c-0.306,0.088-0.608,0.167-0.914,0.248
					c-0.949,0.26-1.875,0.506-2.789,0.735c-0.294,0.077-0.597,0.156-0.884,0.226c-2.844,0.847-5.746,1.423-8.706,1.701
					c-0.007,0-0.008,0-0.01,0c-1.298,0.157-2.495,0.24-3.58,0.24c-3.555,0-6.946-0.373-10.082-1.076
					c-0.151,1.424-0.236,2.871-0.236,4.339c0,22.331,18.102,40.427,40.427,40.427c22.326,0,40.434-18.096,40.434-40.427
					C201.322,144.435,200.844,140.923,199.945,137.581z"/>
				<g>
					<path fill="#F7931E" stroke="#000000" stroke-width="3.1918" stroke-miterlimit="10" d="M191.926,147.855
						c0,5.88-4.767,10.639-10.64,10.639c-5.872,0-10.636-4.758-10.636-10.639c0-5.874,4.764-10.638,10.636-10.638
						C187.16,137.217,191.926,141.981,191.926,147.855z"/>

						<line fill="none" stroke="#000000" stroke-width="3.1918" stroke-linecap="round" stroke-linejoin="round" stroke-miterlimit="10" x1="191.926" y1="147.855" x2="191.926" y2="191.552"/>

						<path fill="none" stroke="#FFFFFF" stroke-width="2.0746" stroke-linecap="round" stroke-linejoin="round" stroke-miterlimit="10" d="
						M174.375,147.855c0-3.817,3.094-6.913,6.912-6.913"/>
				</g>
				<path fill="none" stroke="#B3B3B3" stroke-width="2.9433" stroke-linecap="round" stroke-miterlimit="10" d="M129.934,115.026
					c1.06-15.889,1.085-39.553-3.615-52.134"/>
			</g>
			<g>
				<path d="M207.578,135.174c0,0,0.834,0.951,2.398,2.733c1.537,1.806,3.77,4.48,6.385,8.059c2.615,3.576,5.599,8.075,8.462,13.558
					c1.417,2.747,2.798,5.741,4.015,8.994c1.205,3.255,2.286,6.766,2.93,10.538c0.344,1.881,0.545,3.828,0.652,5.818
					c0.061,1.994,0.017,4.033-0.252,6.094c-0.562,4.094-1.931,8.332-4.578,11.932c-0.303,0.467-0.674,0.886-1.029,1.32
					c-0.187,0.223-0.336,0.416-0.555,0.665l-0.578,0.591c-0.395,0.389-0.754,0.797-1.181,1.172
					c-0.438,0.371-0.878,0.739-1.319,1.113c-0.429,0.394-0.926,0.67-1.389,1.012c-0.474,0.328-0.938,0.669-1.447,0.938
					c-0.501,0.285-1.004,0.57-1.506,0.858c-0.525,0.243-1.052,0.489-1.579,0.735c-0.522,0.261-1.067,0.466-1.617,0.664
					c-0.55,0.195-1.092,0.424-1.653,0.594c-1.129,0.318-2.252,0.687-3.416,0.902c-2.307,0.543-4.688,0.789-7.08,0.973
					c-9.611,0.502-19.493-1.358-28.999-4.486c-9.528-3.147-18.775-7.547-27.491-12.797c-4.356-2.63-8.573-5.485-12.644-8.503
					c-2.049-1.499-4.019-3.067-5.997-4.656c-0.965-0.8-1.929-1.601-2.891-2.399c-0.949-0.829-1.895-1.658-2.84-2.484
					c-7.466-6.684-14.227-13.929-19.96-21.58c-5.715-7.656-10.423-15.725-13.573-23.966c-1.573-4.116-2.734-8.284-3.342-12.42
					c-0.615-4.131-0.674-8.238-0.033-12.115c0.625-3.877,2.085-7.476,4.1-10.472c0.47-0.775,1.058-1.449,1.609-2.134l0.415-0.51
					c0.012-0.015,0.094-0.104,0.083-0.092l0.055-0.056l0.11-0.111l0.22-0.222c0.292-0.295,0.583-0.589,0.869-0.88
					c0.625-0.568,1.294-1.151,1.945-1.665c0.335-0.243,0.668-0.483,0.998-0.723l0.494-0.356l0.514-0.316
					c2.708-1.719,5.53-2.779,8.158-3.511c2.646-0.704,5.129-1.063,7.371-1.206c4.491-0.306,7.997,0.054,10.354,0.391
					c1.184,0.132,2.077,0.341,2.682,0.44c0.604,0.111,0.917,0.168,0.917,0.168s-0.317-0.013-0.931-0.039
					c-0.615-0.014-1.521-0.087-2.707-0.091c-2.36-0.044-5.844-0.079-10.168,0.532c-2.163,0.277-4.533,0.752-7.01,1.544
					c-2.486,0.762-5.065,1.896-7.556,3.501l-0.472,0.296l-0.452,0.335c-0.302,0.223-0.605,0.449-0.912,0.674
					c-0.589,0.479-1.137,0.963-1.719,1.499c-0.286,0.294-0.572,0.591-0.86,0.89l-0.401,0.417L92.8,97.799
					c-0.506,0.625-1.048,1.238-1.475,1.946c-1.845,2.733-3.203,6.021-3.797,9.638c-1.214,7.256,0.167,15.476,3.21,23.466
					c3.041,8.026,7.636,15.965,13.244,23.518c5.625,7.549,12.284,14.727,19.641,21.348c7.391,6.627,15.464,12.652,24.051,17.916
					c8.572,5.261,17.68,9.683,27.05,12.86c9.353,3.166,19.063,5.062,28.446,4.648c2.33-0.159,4.65-0.379,6.888-0.89
					c1.132-0.201,2.218-0.548,3.313-0.846c0.541-0.158,1.063-0.375,1.598-0.561c0.531-0.186,1.059-0.379,1.561-0.627
					c0.509-0.231,1.016-0.461,1.523-0.693c0.484-0.271,0.969-0.543,1.451-0.812c0.492-0.252,0.938-0.576,1.391-0.885
					c0.44-0.321,0.932-0.59,1.328-0.95c0.417-0.343,0.831-0.685,1.244-1.026c0.408-0.35,0.784-0.771,1.179-1.152l0.583-0.584
					l0.5-0.596c0.34-0.412,0.699-0.808,0.992-1.25c2.562-3.41,3.94-7.454,4.541-11.426c0.289-1.996,0.355-3.987,0.323-5.939
					c-0.08-1.951-0.252-3.865-0.565-5.723c-0.584-3.725-1.606-7.211-2.758-10.453c-1.164-3.242-2.496-6.234-3.869-8.987
					c-2.773-5.494-5.699-10.013-8.235-13.633c-2.545-3.618-4.727-6.33-6.23-8.162C208.395,136.14,207.578,135.174,207.578,135.174z"
					/>
			</g>
			<g>
				<path fill="#F7931E" d="M105.428,93.574c0,5.354-4.343,9.699-9.696,9.699c-5.354,0-9.698-4.345-9.698-9.699
					c0-5.354,4.344-9.699,9.698-9.699C101.085,83.875,105.428,88.22,105.428,93.574z"/>
				<path fill="#FFFFFF" d="M96.781,89.98c0,2.056-1.664,3.719-3.718,3.719c-2.056,0-3.727-1.663-3.727-3.719
					c0-2.062,1.67-3.725,3.727-3.725C95.119,86.255,96.781,87.918,96.781,89.98z"/>
			</g>
			<g>
				<path fill="#F7931E" d="M235.354,204.475c0,5.354-4.351,9.692-9.705,9.692c-5.355,0-9.693-4.337-9.693-9.692
					c0-5.354,4.337-9.693,9.693-9.693S235.354,199.119,235.354,204.475z"/>
				<path fill="#FFFFFF" d="M226.705,200.881c0,2.056-1.668,3.725-3.725,3.725s-3.727-1.668-3.727-3.725s1.668-3.727,3.727-3.727
					C225.035,197.155,226.705,198.824,226.705,200.881z"/>
			</g>
			<path d="M159.033,167.859c-0.878,0.881-1.321,2.262-2.188,3.192c-0.948,1.035-2.25,1.919-3.399,2.708
				c-1.931,1.332-5.249,2.346-7.591,2.193c-2.677,0.156-5.611-1.059-7.631-2.763c-1.583-1.354-4.723-4.286-4.723-6.499
				c0.907,0.375,1.744,1.193,2.607,1.692c1.291,0.767,2.509,0.921,3.963,1.169c2.782,0.472,5.345-1.982,7.037-3.847
				c1.567-1.726,3.036-3.784,5.162-4.872c1.195-0.605,2.538-0.934,3.836-0.457c0.77,0.293,2.237,1.761,2.928,1.736
				c0.634,0.021,1.637-1.195,2.262-1.467c1.354-0.579,2.562-0.624,3.93-0.07c2.427,0.996,4.029,3.253,5.729,5.13
				c1.641,1.8,3.83,3.894,6.455,3.892c1.244,0,2.846-0.245,3.93-0.854c1.059-0.596,2.117-1.588,3.23-2.057
				c0,2.213-3.142,5.145-4.724,6.499c-2.028,1.704-4.948,2.919-7.631,2.764c-2.347,0.151-5.668-0.864-7.591-2.191
				c-1.149-0.789-2.461-1.673-3.398-2.709C160.356,170.121,159.913,168.74,159.033,167.859
				C158.608,168.275,159.454,168.275,159.033,167.859z"/>
		</g>
		<g>
			<path d="M71.008,229.629c0-0.896,0.316-1.662,0.952-2.297c0.635-0.635,1.4-0.951,2.297-0.951c0.895,0,1.663,0.316,2.296,0.951
				c0.636,0.635,0.953,1.401,0.953,2.297c0,0.896-0.317,1.663-0.953,2.297c-0.635,0.637-1.401,0.953-2.296,0.953
				c-0.896,0-1.664-0.316-2.297-0.953C71.327,231.292,71.008,230.525,71.008,229.629z M71.457,235.346h5.604v18.157h-5.604V235.346z
				"/>
			<path d="M91.37,240.688c-0.822-1.021-1.906-1.531-3.251-1.531c-0.473,0-0.934,0.113-1.382,0.337
				c-0.45,0.226-0.674,0.612-0.674,1.159c0,0.449,0.232,0.779,0.691,0.99c0.46,0.209,1.045,0.398,1.756,0.561
				c0.71,0.162,1.471,0.339,2.279,0.523c0.809,0.187,1.57,0.48,2.278,0.878c0.71,0.399,1.295,0.94,1.756,1.624
				c0.459,0.686,0.691,1.604,0.691,2.746c0,1.17-0.255,2.137-0.765,2.898c-0.511,0.758-1.166,1.367-1.962,1.828
				c-0.797,0.46-1.694,0.785-2.689,0.972c-0.997,0.187-1.98,0.282-2.952,0.282c-1.272,0-2.553-0.182-3.848-0.543
				c-1.296-0.359-2.391-1.002-3.288-1.923l3.4-3.774c0.522,0.646,1.102,1.141,1.737,1.475c0.635,0.338,1.376,0.507,2.223,0.507
				c0.646,0,1.233-0.097,1.755-0.281c0.523-0.187,0.784-0.53,0.784-1.028c0-0.473-0.231-0.828-0.691-1.064
				c-0.461-0.235-1.046-0.436-1.756-0.598c-0.709-0.161-1.47-0.335-2.279-0.521c-0.81-0.188-1.569-0.467-2.279-0.841
				c-0.708-0.374-1.295-0.902-1.755-1.589c-0.46-0.684-0.692-1.6-0.692-2.745c0-1.071,0.218-1.993,0.654-2.764
				c0.435-0.771,1.008-1.406,1.719-1.906c0.707-0.497,1.525-0.866,2.446-1.103c0.921-0.234,1.855-0.354,2.8-0.354
				c1.196,0,2.405,0.175,3.624,0.522c1.222,0.35,2.254,0.973,3.101,1.867L91.37,240.688z"/>
			<path d="M97.721,244.424c0-1.443,0.261-2.752,0.784-3.922c0.523-1.17,1.239-2.174,2.148-3.008
				c0.909-0.834,1.98-1.477,3.213-1.925c1.231-0.448,2.544-0.672,3.941-0.672c1.394,0,2.708,0.224,3.941,0.672
				s2.303,1.091,3.213,1.925c0.909,0.834,1.626,1.836,2.148,3.008c0.523,1.17,0.784,2.479,0.784,3.922
				c0,1.445-0.261,2.753-0.784,3.923c-0.522,1.169-1.239,2.173-2.148,3.008c-0.91,0.835-1.98,1.476-3.213,1.924
				s-2.545,0.673-3.941,0.673s-2.708-0.225-3.941-0.673s-2.304-1.089-3.213-1.924c-0.91-0.835-1.625-1.837-2.148-3.008
				C97.982,247.177,97.721,245.869,97.721,244.424z M103.325,244.424c0,1.37,0.392,2.479,1.177,3.326
				c0.784,0.847,1.885,1.27,3.307,1.27c1.422,0,2.522-0.423,3.306-1.27c0.785-0.848,1.177-1.956,1.177-3.326
				c0-1.369-0.393-2.478-1.177-3.324c-0.784-0.848-1.884-1.271-3.306-1.271c-1.421,0-2.522,0.424-3.307,1.271
				C103.717,241.946,103.325,243.055,103.325,244.424z"/>
			<path d="M133.549,239.828h-4.932v6.053c0,0.498,0.023,0.952,0.074,1.363c0.049,0.412,0.162,0.768,0.336,1.063
				c0.176,0.299,0.444,0.531,0.805,0.694c0.36,0.159,0.839,0.24,1.438,0.24c0.299,0,0.691-0.031,1.176-0.096
				c0.484-0.062,0.853-0.205,1.103-0.428v4.67c-0.623,0.225-1.271,0.372-1.942,0.449c-0.673,0.074-1.333,0.113-1.98,0.113
				c-0.947,0-1.819-0.101-2.616-0.299c-0.797-0.201-1.494-0.518-2.092-0.953s-1.065-1.002-1.401-1.699
				c-0.336-0.698-0.504-1.545-0.504-2.541v-8.631h-3.588v-4.482h3.588v-5.38h5.604v5.38h4.932V239.828z"/>
			<path d="M135.716,244.424c0-1.443,0.261-2.752,0.784-3.922c0.523-1.17,1.239-2.174,2.148-3.008
				c0.909-0.834,1.98-1.477,3.213-1.925c1.233-0.448,2.546-0.672,3.941-0.672c1.396,0,2.708,0.224,3.943,0.672
				c1.233,0.448,2.304,1.091,3.213,1.925s1.625,1.836,2.148,3.008c0.523,1.17,0.784,2.479,0.784,3.922
				c0,1.445-0.261,2.753-0.784,3.923c-0.523,1.169-1.239,2.173-2.148,3.008s-1.98,1.476-3.213,1.924
				c-1.232,0.448-2.547,0.673-3.943,0.673c-1.394,0-2.708-0.225-3.941-0.673c-1.232-0.448-2.304-1.089-3.213-1.924
				c-0.91-0.835-1.625-1.837-2.148-3.008C135.978,247.177,135.716,245.869,135.716,244.424z M141.32,244.424
				c0,1.37,0.394,2.479,1.177,3.326c0.784,0.847,1.886,1.27,3.306,1.27s2.521-0.423,3.308-1.27c0.784-0.848,1.177-1.956,1.177-3.326
				c0-1.369-0.394-2.478-1.177-3.324c-0.784-0.848-1.886-1.271-3.308-1.271c-1.418,0-2.521,0.424-3.306,1.271
				C141.712,241.946,141.32,243.055,141.32,244.424z"/>
			<path d="M159.7,235.346h5.155v2.391h0.075c0.225-0.323,0.517-0.654,0.878-0.99s0.785-0.641,1.271-0.915
				c0.484-0.273,1.014-0.497,1.587-0.675c0.572-0.174,1.184-0.262,1.829-0.262c1.346,0,2.566,0.233,3.662,0.691
				c1.094,0.461,2.037,1.111,2.82,1.943c0.784,0.834,1.389,1.824,1.811,2.969c0.424,1.146,0.636,2.404,0.636,3.773
				c0,1.271-0.193,2.486-0.579,3.645c-0.387,1.158-0.934,2.186-1.643,3.082c-0.711,0.896-1.577,1.613-2.598,2.148
				c-1.021,0.537-2.18,0.805-3.476,0.805c-1.17,0-2.261-0.182-3.269-0.543c-1.009-0.359-1.836-0.976-2.486-1.848h-0.073v10.461
				h-5.604v-26.676H159.7L159.7,235.346z M164.855,244.424c0,1.37,0.395,2.479,1.178,3.326c0.784,0.847,1.887,1.27,3.307,1.27
				s2.521-0.423,3.309-1.27c0.783-0.848,1.176-1.956,1.176-3.326c0-1.369-0.394-2.478-1.176-3.324
				c-0.785-0.848-1.887-1.271-3.309-1.271c-1.418,0-2.521,0.424-3.307,1.271C165.248,241.946,164.855,243.055,164.855,244.424z"/>
			<path d="M199.9,250.364c-0.896,1.146-2.03,2.03-3.399,2.652c-1.37,0.622-2.79,0.935-4.259,0.935
				c-1.395,0-2.709-0.225-3.941-0.673s-2.305-1.089-3.213-1.924c-0.91-0.835-1.625-1.837-2.148-3.008
				c-0.523-1.17-0.784-2.478-0.784-3.923c0-1.443,0.261-2.752,0.784-3.922s1.238-2.174,2.148-3.008
				c0.908-0.834,1.98-1.477,3.213-1.925s2.544-0.672,3.941-0.672c1.294,0,2.471,0.224,3.531,0.672
				c1.059,0.448,1.955,1.091,2.688,1.925c0.735,0.834,1.304,1.836,1.7,3.008c0.398,1.17,0.598,2.479,0.598,3.922v1.756h-13.001
				c0.224,1.071,0.71,1.924,1.456,2.561c0.748,0.635,1.67,0.952,2.766,0.952c0.922,0,1.699-0.206,2.335-0.618
				c0.635-0.411,1.189-0.94,1.663-1.586L199.9,250.364z M195.156,242.369c0.025-0.946-0.287-1.756-0.934-2.429
				c-0.646-0.671-1.482-1.008-2.504-1.008c-0.621,0-1.169,0.099-1.644,0.298c-0.474,0.201-0.878,0.455-1.214,0.767
				c-0.337,0.312-0.598,0.673-0.784,1.083c-0.187,0.411-0.292,0.841-0.317,1.289H195.156z"/>
			<path d="M204.721,250.887c0-0.797,0.291-1.48,0.877-2.055c0.586-0.572,1.289-0.859,2.111-0.859c0.796,0,1.494,0.274,2.092,0.822
				c0.597,0.549,0.896,1.221,0.896,2.018c0,0.798-0.292,1.482-0.878,2.055c-0.586,0.574-1.289,0.859-2.109,0.859
				c-0.398,0-0.781-0.074-1.142-0.224c-0.361-0.149-0.679-0.349-0.951-0.597c-0.274-0.25-0.493-0.549-0.653-0.896
				C204.801,251.659,204.721,251.287,204.721,250.887z"/>
			<path d="M230.685,250.962c-0.847,1.022-1.806,1.774-2.874,2.261c-1.072,0.484-2.232,0.729-3.477,0.729
				c-1.32,0-2.541-0.227-3.662-0.674c-1.121-0.449-2.078-1.078-2.877-1.887c-0.797-0.809-1.417-1.768-1.867-2.877
				c-0.449-1.107-0.672-2.322-0.672-3.643s0.223-2.534,0.672-3.643c0.45-1.109,1.07-2.068,1.867-2.877
				c0.799-0.809,1.756-1.438,2.877-1.885c1.121-0.45,2.342-0.674,3.662-0.674c1.271,0,2.447,0.262,3.532,0.784
				c1.084,0.523,2.049,1.259,2.896,2.206l-1.793,1.343c-0.648-0.722-1.359-1.287-2.132-1.698c-0.772-0.41-1.606-0.618-2.503-0.618
				c-1.046,0-1.994,0.187-2.84,0.562c-0.846,0.373-1.569,0.879-2.166,1.514c-0.598,0.635-1.053,1.383-1.362,2.242
				c-0.313,0.859-0.468,1.773-0.468,2.744c0,0.973,0.154,1.887,0.468,2.746c0.312,0.861,0.765,1.608,1.362,2.241
				c0.597,0.636,1.32,1.14,2.166,1.514c0.846,0.372,1.794,0.562,2.84,0.562c0.947,0,1.812-0.219,2.598-0.655
				c0.784-0.434,1.463-1.014,2.037-1.736L230.685,250.962z"/>
			<path d="M234.195,225.258h2.242v14.012h0.074c0.447-0.947,1.195-1.763,2.241-2.449c1.046-0.684,2.267-1.027,3.661-1.027
				c1.346,0,2.439,0.213,3.287,0.637c0.846,0.424,1.514,0.977,1.998,1.662c0.482,0.685,0.821,1.477,1.008,2.374
				c0.186,0.896,0.281,1.819,0.281,2.765v10.273h-2.242v-10.162c0-0.697-0.062-1.375-0.187-2.036
				c-0.124-0.66-0.343-1.252-0.651-1.774c-0.314-0.523-0.749-0.94-1.309-1.251c-0.561-0.312-1.289-0.468-2.186-0.468
				c-0.821,0-1.602,0.145-2.335,0.43c-0.735,0.287-1.37,0.723-1.906,1.307c-0.536,0.586-0.958,1.32-1.271,2.205
				c-0.312,0.884-0.467,1.924-0.467,3.119v8.631h-2.242L234.195,225.258L234.195,225.258z"/>
		</g>
	</g>

		<radialGradient id="SVGID_1_" cx="227.5625" cy="-3927.2227" r="50.9866" gradientTransform="matrix(1.3861 0 0 -0.1667 -155.4252 -431.732)" gradientUnits="userSpaceOnUse">
		<stop  offset="0" style="stop-color:#808080"/>
		<stop  offset="1" style="stop-color:#808080;stop-opacity:0"/>
	</radialGradient>
	<path fill="url(#SVGID_1_)" d="M259,222.937c0,0.911-44.322,1.649-99,1.649c-54.675,0-99-0.738-99-1.649
		c0-0.91,44.325-1.649,99-1.649C214.678,221.287,259,222.026,259,222.937z"/>
</g>
</svg>
