<?xml version="1.0" encoding="UTF-8"?>
<svg id="Layer_1" xmlns="http://www.w3.org/2000/svg" version="1.1" viewBox="0 0 320 320">
  <!-- Generator: Adobe Illustrator 30.3.0, SVG Export Plug-In . SVG Version: 2.1.3 Build 182)  -->
  <defs>
    <style>
      .st0 {
        fill: #6d8daf;
      }
    </style>
  </defs>
  <path class="st0" d="M247.56,154.39h0l-84.9-84.9h0c-2.6-2.6-6.82-2.6-9.42,0l-13.91,13.92-29.75-29.75c-2.39-2.49-5.73-4.06-9.45-4.06-7.26,0-13.14,5.9-13.13,13.19,0,3.77,1.59,7.15,4.12,9.55l29.64,29.65-72.17,72.16h0c-2.6,2.6-2.6,6.82,0,9.43l84.9,84.91c2.6,2.6,6.82,2.6,9.42,0h0l104.66-104.66c2.6-2.6,2.6-6.82,0-9.42v-.02ZM195.43,178.8h-114.18l76.74-76.74,57.09,57.1-19.64,19.64h0Z"/>
  <path class="st0" d="M268.67,222.79l-15.79-27.35c-.08-.16-.16-.31-.26-.45l-.04-.07h0c-.8-1.1-2.09-1.82-3.57-1.82-1.34,0-2.52.61-3.32,1.56l-.04-.02-.16.27c-.23.31-.43.64-.58.99l-15.44,26.74c-3.03,4.06-4.84,9.08-4.84,14.53,0,13.47,10.91,24.38,24.38,24.38s24.38-10.92,24.38-24.38c0-5.38-1.76-10.34-4.72-14.37h0Z"/>
</svg>