<?xml version="1.0" encoding="utf-8"?>
<!DOCTYPE svg PUBLIC "-//W3C//DTD SVG 1.1//EN" "http://www.w3.org/Graphics/SVG/1.1/DTD/svg11.dtd">
<svg version="1.1" id="Layer_1" xmlns="http://www.w3.org/2000/svg" xmlns:xlink="http://www.w3.org/1999/xlink" x="0px" y="0px"
	 width="320px" height="320px" viewBox="-110 -110 320 320" enable-background="new -110 -110 320 320" xml:space="preserve">
<g>
	<path fill="#6d8daf" d="M97.988,46.923c-0.003-0.002-0.006-0.003-0.007-0.005L51.454,0.388h-0.002l0,0c-1.427-1.427-3.738-1.427-5.165,0
		l-7.626,7.627L22.354-8.292c-1.31-1.367-3.142-2.226-5.179-2.224c-3.977-0.002-7.2,3.234-7.197,7.229
		c0,2.067,0.874,3.919,2.259,5.236l16.244,16.248l-39.552,39.55l0,0c-1.427,1.426-1.427,3.738,0,5.166l46.532,46.533
		c1.427,1.427,3.74,1.427,5.165,0l0.001-0.002l57.36-57.358C99.413,50.661,99.413,48.348,97.988,46.923z M69.416,60.303H6.837
		l42.055-42.055l31.289,31.291L69.416,60.303z"/>
	<path fill="#6d8daf" d="M109.556,84.414l-8.656-14.989c-0.045-0.085-0.089-0.17-0.143-0.249l-0.021-0.036l-0.006,0.003
		c-0.438-0.605-1.143-1.001-1.959-1.001c-0.736,0-1.38,0.336-1.821,0.853l-0.022-0.013l-0.085,0.148
		c-0.126,0.17-0.235,0.349-0.316,0.544l-8.46,14.653c-1.66,2.226-2.652,4.976-2.652,7.965c0,7.38,5.979,13.364,13.362,13.364
		c7.387,0,13.364-5.984,13.364-13.364C112.14,89.342,111.175,86.626,109.556,84.414z"/>
</g>
</svg>
