<?xml version="1.0" encoding="UTF-8" standalone="no"?>
<!DOCTYPE svg PUBLIC "-//W3C//DTD SVG 1.1//EN" "http://www.w3.org/Graphics/SVG/1.1/DTD/svg11.dtd">
<svg width="100%" height="100%" viewBox="0 0 420 336" version="1.1" xmlns="http://www.w3.org/2000/svg" xmlns:xlink="http://www.w3.org/1999/xlink" xml:space="preserve" xmlns:serif="http://www.serif.com/" style="fill-rule:evenodd;clip-rule:evenodd;stroke-linejoin:round;stroke-miterlimit:2;">
    <g transform="matrix(0.406247,0,0,0.406247,80.001,64.0025)">
        <path d="M206.86,245.15C170.98,255.6 146.91,286.35 149.33,319.25C160.73,306.53 178.14,295.55 199.23,288.33L206.86,245.15ZM95.81,295L64.08,115.49C63.79,113.87 64.36,112.87 64.32,112.84C122.08,80.78 187.44,63.83 253.33,63.83C254.94,63.83 256.56,64 258.18,64.02C272.13,50.55 289.91,41.19 309.77,38.02C328.66,35 347.82,33.47 366.95,32.7C356.96,18.75 342.47,8.47 325.18,5.7C301.27,1.89 277.24,0 253.32,0C176.66,0 101.02,19.42 33.2,57.06C9.03,70.48 -3.92,98.48 1.05,126.58L32.78,306.09C47.01,386.61 169.11,448.17 237.23,448.17C240.82,448.17 243.98,447.71 247.24,447.37C233.72,430.29 218.3,406.89 207.74,379.79C160.13,366.81 101.68,328.17 95.81,295ZM193.36,157.54C192.63,153.42 191.13,149.67 189.29,146.14C181.04,155.05 168.62,161.89 153.97,164.46C139.32,167.04 125.3,164.86 114.49,159.29C113.97,163.23 113.85,167.27 114.58,171.39C118.42,193.09 139.16,207.58 160.92,203.76C182.67,199.94 197.2,179.24 193.36,157.54ZM606.8,120.9C517.82,71.52 415.37,53.49 314.82,69.55C287.51,73.91 265.74,95.81 260.78,123.91L229.05,303.42C213.66,390.47 324.33,499.69 387.36,510.77C450.39,521.86 591.83,456.98 607.22,369.93L638.95,190.42C643.92,162.31 630.97,134.31 606.8,120.9ZM333.56,217.7C337.4,196 358.14,181.51 379.9,185.34C401.66,189.17 416.18,209.86 412.35,231.56C411.62,235.68 410.12,239.43 408.28,242.96C400.03,234.05 387.61,227.21 372.96,224.64C358.31,222.06 344.29,224.24 333.48,229.81C332.95,225.86 332.83,221.82 333.56,217.7ZM404.03,416.46C348.35,406.67 310.51,357.19 314.99,303.56C335.59,329.1 371.2,349.73 414.48,357.34C457.76,364.95 498.3,357.71 526.41,340.74C512.23,392.68 459.7,426.25 404.03,416.46ZM534.33,265.12C526.08,256.21 513.65,249.37 499,246.8C484.35,244.22 470.33,246.4 459.52,251.97C459,248.03 458.88,243.99 459.61,239.87C463.45,218.17 484.19,203.68 505.95,207.5C527.7,211.33 542.23,232.02 538.4,253.72C537.67,257.85 536.17,261.6 534.33,265.12Z" style="fill:rgb(109,141,175);fill-rule:nonzero;"/>
    </g>
</svg>
